<?xml version="1.0" encoding="UTF-8" standalone="no"?> <!-- Created with Vectornator for iOS (http://vectornator.io/) --><!DOCTYPE svg PUBLIC "-//W3C//DTD SVG 1.1//EN" "http://www.w3.org/Graphics/SVG/1.1/DTD/svg11.dtd">
<svg height="100%" style="fill-rule:evenodd;clip-rule:evenodd;stroke-linecap:round;stroke-linejoin:round;" xmlns:xlink="http://www.w3.org/1999/xlink" xmlns="http://www.w3.org/2000/svg" xml:space="preserve" width="100%" xmlns:vectornator="http://vectornator.io" version="1.1" viewBox="0 0 380 100">
<metadata>
<vectornator:setting key="DynamicGuides" value="1"/>
<vectornator:setting key="Units" value="Points"/>
<vectornator:setting key="GridSpacing" value="36"/>
<vectornator:setting key="SnapToGuides" value="1"/>
<vectornator:setting key="RulersVisible" value="1"/>
</metadata>
<defs/>
<g id="Untitled" vectornator:layerName="Untitled">
<g opacity="1">
<path d="M12.5701+32.9027L42.4721+3C52.2531+12.7817+52.2531+28.6412+42.4721+38.4229L12.5701+68.3242C2.78843+58.5425+2.78843+42.6837+12.5701+32.9027" fill-rule="evenodd" fill="#ffffff" opacity="1"/>
<path d="M42.45+62.8247L32.8383+53.2131L12.548+32.9227C5.88875+39.5834+3.76801+49.0592+6.17686+57.5177C7.30629+61.4814+9.42629+65.2232+12.548+68.3456L42.45+98.2469C52.2317+88.4652+52.2317+72.6064+42.45+62.8247" fill-rule="evenodd" fill="#d4d6da" opacity="1"/>
<path d="M102.84+32.9027L72.938+3C63.1571+12.7817+63.1571+28.6412+72.938+38.4229L102.84+68.3242C112.622+58.5425+112.622+42.6837+102.84+32.9027" fill-rule="evenodd" fill="#d4d6da" opacity="1"/>
<path d="M72.9601+62.8247L82.5717+53.2131L102.862+32.9227C109.521+39.5834+111.642+49.0592+109.233+57.5177C108.104+61.4814+105.983+65.2232+102.862+68.3456L72.9601+98.2469C63.1784+88.4652+63.1784+72.6064+72.9601+62.8247" fill-rule="evenodd" fill="#ffffff" opacity="1"/>
</g>
<g opacity="1">
<path d="M142.766+50.2074C142.766+53.7208+141.898+56.4178+140.162+58.2984C138.426+60.1791+135.905+61.1194+132.598+61.1194C129.292+61.1194+126.77+60.1791+125.034+58.2984C123.298+56.4178+122.43+53.7208+122.43+50.2074L122.43+27.6394C122.43+24.1261+123.298+21.4291+125.034+19.5484C126.77+17.6678+129.292+16.7274+132.598+16.7274C135.905+16.7274+138.426+17.6678+140.162+19.5484C141.898+21.4291+142.766+24.1261+142.766+27.6394L142.766+31.8554L136.318+31.8554L136.318+27.2054C136.318+24.3534+135.14+22.9274+132.784+22.9274C130.428+22.9274+129.25+24.3534+129.25+27.2054L129.25+50.6414C129.25+53.4521+130.428+54.8574+132.784+54.8574C135.14+54.8574+136.318+53.4521+136.318+50.6414L136.318+44.4414L142.766+44.4414L142.766+50.2074Z" fill-rule="evenodd" fill="#ffffff" opacity="1"/>
<path d="M150.49+27.6394C150.49+24.1674+151.379+21.4808+153.156+19.5794C154.933+17.6781+157.496+16.7274+160.844+16.7274C164.192+16.7274+166.755+17.6781+168.532+19.5794C170.309+21.4808+171.198+24.1674+171.198+27.6394L171.198+50.2074C171.198+53.6794+170.309+56.3661+168.532+58.2674C166.755+60.1688+164.192+61.1194+160.844+61.1194C157.496+61.1194+154.933+60.1688+153.156+58.2674C151.379+56.3661+150.49+53.6794+150.49+50.2074L150.49+27.6394ZM157.31+50.6414C157.31+53.4934+158.488+54.9194+160.844+54.9194C163.2+54.9194+164.378+53.4934+164.378+50.6414L164.378+27.2054C164.378+24.3534+163.2+22.9274+160.844+22.9274C158.488+22.9274+157.31+24.3534+157.31+27.2054L157.31+50.6414Z" fill-rule="evenodd" fill="#ffffff" opacity="1"/>
<path d="M190.515+17.2234C193.905+17.2234+196.447+18.1328+198.141+19.9514C199.836+21.7701+200.683+24.4361+200.683+27.9494L200.683+49.8974C200.683+53.4108+199.836+56.0768+198.141+57.8954C196.447+59.7141+193.905+60.6234+190.515+60.6234L179.727+60.6234L179.727+17.2234L190.515+17.2234ZM186.547+54.4234L190.391+54.4234C191.507+54.4234+192.365+54.0928+192.964+53.4314C193.564+52.7701+193.863+51.6954+193.863+50.2074L193.863+27.6394C193.863+26.1514+193.564+25.0768+192.964+24.4154C192.365+23.7541+191.507+23.4234+190.391+23.4234L186.547+23.4234L186.547+54.4234Z" fill-rule="evenodd" fill="#ffffff" opacity="1"/>
<path d="M225.333+35.5134L225.333+41.7134L215.971+41.7134L215.971+54.4234L227.751+54.4234L227.751+60.6234L209.151+60.6234L209.151+17.2234L227.751+17.2234L227.751+23.4234L215.971+23.4234L215.971+35.5134L225.333+35.5134Z" fill-rule="evenodd" fill="#ffffff" opacity="1"/>
<path d="M251.718+38.3034L259.344+60.6234L252.152+60.6234L246.572+43.4494L240.93+60.6234L234.544+60.6234L242.17+38.3034L235.04+17.2234L242.108+17.2234L247.254+33.2194L252.524+17.2234L258.848+17.2234L251.718+38.3034Z" fill-rule="evenodd" fill="#ffffff" opacity="1"/>
<path d="M276.926+17.2234C280.315+17.2234+282.857+18.1328+284.552+19.9514C286.247+21.7701+287.094+24.4361+287.094+27.9494L287.094+33.5914C287.094+37.1048+286.247+39.7708+284.552+41.5894C282.857+43.4081+280.315+44.3174+276.926+44.3174L273.702+44.3174L273.702+60.6234L266.882+60.6234L266.882+17.2234L276.926+17.2234ZM273.702+38.1174L276.926+38.1174C278.042+38.1174+278.879+37.8074+279.437+37.1874C279.995+36.5674+280.274+35.5134+280.274+34.0254L280.274+27.5154C280.274+26.0274+279.995+24.9734+279.437+24.3534C278.879+23.7334+278.042+23.4234+276.926+23.4234L273.702+23.4234L273.702+38.1174Z" fill-rule="evenodd" fill="#ffffff" opacity="1"/>
<path d="M310.875+35.5134L310.875+41.7134L301.513+41.7134L301.513+54.4234L313.293+54.4234L313.293+60.6234L294.693+60.6234L294.693+17.2234L313.293+17.2234L313.293+23.4234L301.513+23.4234L301.513+35.5134L310.875+35.5134Z" fill-rule="evenodd" fill="#ffffff" opacity="1"/>
<path d="M335.897+60.6234C335.649+59.9208+335.483+59.2594+335.401+58.6394C335.318+58.0194+335.277+56.9034+335.277+55.2914L335.277+48.4714C335.277+46.4874+334.925+45.0718+334.223+44.2244C333.52+43.3771+332.383+42.9534+330.813+42.9534L328.457+42.9534L328.457+60.6234L321.637+60.6234L321.637+17.2234L331.929+17.2234C335.442+17.2234+338.005+18.0398+339.617+19.6724C341.229+21.3051+342.035+23.8161+342.035+27.2054L342.035+30.6154C342.035+35.0794+340.547+38.0141+337.571+39.4194C339.183+40.0808+340.34+41.1864+341.043+42.7364C341.745+44.2864+342.097+46.2601+342.097+48.6574L342.097+55.3534C342.097+56.5934+342.138+57.5958+342.221+58.3604C342.303+59.1251+342.51+59.8794+342.841+60.6234L335.897+60.6234ZM328.457+36.7534L331.123+36.7534C332.487+36.7534+333.51+36.4021+334.192+35.6994C334.874+34.9968+335.215+33.8188+335.215+32.1654L335.215+27.8874C335.215+26.3168+334.936+25.1801+334.378+24.4774C333.82+23.7748+332.941+23.4234+331.743+23.4234L328.457+23.4234L328.457+36.7534Z" fill-rule="evenodd" fill="#ffffff" opacity="1"/>
<path d="M369.784+17.2234L369.784+23.4234L362.654+23.4234L362.654+60.6234L355.834+60.6234L355.834+23.4234L348.704+23.4234L348.704+17.2234L369.784+17.2234Z" fill-rule="evenodd" fill="#ffffff" opacity="1"/>
</g>
<g opacity="1">
<path d="M141.264+68.9334L138.042+81.6234L136.044+81.6234L133.11+71.2554L130.176+81.6234L128.178+81.6234L124.938+68.9334L126.756+68.9334L129.186+79.7154L132.192+68.9334L134.01+68.9334L137.016+79.6794L139.464+68.9334L141.264+68.9334Z" fill-rule="evenodd" fill="#ffffff" opacity="1"/>
<path d="M146.411+70.2654L146.411+74.6034L151.235+74.6034L151.235+75.8634L146.411+75.8634L146.411+80.2914L151.775+80.2914L151.775+81.6234L144.773+81.6234L144.773+68.9334L151.775+68.9334L151.775+70.2654L146.411+70.2654Z" fill-rule="evenodd" fill="#ffffff" opacity="1"/>
<path d="M161.656+75.0534C162.436+75.2214+163.069+75.5934+163.555+76.1694C164.041+76.7454+164.284+77.4234+164.284+78.2034C164.284+79.2354+163.933+80.0634+163.231+80.6874C162.529+81.3114+161.512+81.6234+160.18+81.6234L155.464+81.6234L155.464+68.9334L160.108+68.9334C161.38+68.9334+162.346+69.2154+163.006+69.7794C163.666+70.3434+163.996+71.1174+163.996+72.1014C163.996+72.9174+163.777+73.5774+163.339+74.0814C162.901+74.5854+162.34+74.9094+161.656+75.0534ZM157.102+74.4954L159.838+74.4954C160.642+74.4954+161.257+74.3094+161.683+73.9374C162.109+73.5654+162.322+73.0434+162.322+72.3714C162.322+71.7234+162.112+71.2134+161.692+70.8414C161.272+70.4694+160.63+70.2834+159.766+70.2834L157.102+70.2834L157.102+74.4954ZM159.874+80.2554C160.738+80.2554+161.407+80.0574+161.881+79.6614C162.355+79.2654+162.592+78.7074+162.592+77.9874C162.592+77.2794+162.349+76.7244+161.863+76.3224C161.377+75.9204+160.702+75.7194+159.838+75.7194L157.102+75.7194L157.102+80.2554L159.874+80.2554Z" fill-rule="evenodd" fill="#ffffff" opacity="1"/>
<path d="M184.64+75.2694C184.64+76.5534+184.382+77.6724+183.866+78.6264C183.35+79.5804+182.591+80.3184+181.589+80.8404C180.587+81.3624+179.384+81.6234+177.98+81.6234L173.948+81.6234L173.948+68.9334L177.98+68.9334C179.384+68.9334+180.587+69.1884+181.589+69.6984C182.591+70.2084+183.35+70.9404+183.866+71.8944C184.382+72.8484+184.64+73.9734+184.64+75.2694ZM177.854+80.1474C179.51+80.1474+180.776+79.7214+181.652+78.8694C182.528+78.0174+182.966+76.8174+182.966+75.2694C182.966+73.7214+182.531+72.5184+181.661+71.6604C180.791+70.8024+179.522+70.3734+177.854+70.3734L175.586+70.3734L175.586+80.1474L177.854+80.1474Z" fill-rule="evenodd" fill="#ffffff" opacity="1"/>
<path d="M190.076+70.2654L190.076+74.6034L194.9+74.6034L194.9+75.8634L190.076+75.8634L190.076+80.2914L195.44+80.2914L195.44+81.6234L188.438+81.6234L188.438+68.9334L195.44+68.9334L195.44+70.2654L190.076+70.2654Z" fill-rule="evenodd" fill="#ffffff" opacity="1"/>
<path d="M199.957+68.9334L203.827+79.8054L207.751+68.9334L209.533+68.9334L204.871+81.6234L202.801+81.6234L198.157+68.9334L199.957+68.9334Z" fill-rule="evenodd" fill="#ffffff" opacity="1"/>
<path d="M214.41+70.2654L214.41+74.6034L219.234+74.6034L219.234+75.8634L214.41+75.8634L214.41+80.2914L219.774+80.2914L219.774+81.6234L212.772+81.6234L212.772+68.9334L219.774+68.9334L219.774+70.2654L214.41+70.2654Z" fill-rule="evenodd" fill="#ffffff" opacity="1"/>
<path d="M225.101+80.3454L229.601+80.3454L229.601+81.6234L223.463+81.6234L223.463+68.9334L225.101+68.9334L225.101+80.3454Z" fill-rule="evenodd" fill="#ffffff" opacity="1"/>
<path d="M238.672+68.7714C239.848+68.7714+240.907+69.0474+241.849+69.5994C242.791+70.1514+243.532+70.9224+244.072+71.9124C244.612+72.9024+244.882+74.0214+244.882+75.2694C244.882+76.5174+244.612+77.6364+244.072+78.6264C243.532+79.6164+242.791+80.3874+241.849+80.9394C240.907+81.4914+239.848+81.7674+238.672+81.7674C237.496+81.7674+236.431+81.4914+235.477+80.9394C234.523+80.3874+233.776+79.6164+233.236+78.6264C232.696+77.6364+232.426+76.5174+232.426+75.2694C232.426+74.0214+232.696+72.9024+233.236+71.9124C233.776+70.9224+234.523+70.1514+235.477+69.5994C236.431+69.0474+237.496+68.7714+238.672+68.7714ZM238.672+70.3014C237.796+70.3014+237.013+70.5024+236.323+70.9044C235.633+71.3064+235.093+71.8824+234.703+72.6324C234.313+73.3824+234.118+74.2614+234.118+75.2694C234.118+76.2654+234.313+77.1414+234.703+77.8974C235.093+78.6534+235.633+79.2324+236.323+79.6344C237.013+80.0364+237.796+80.2374+238.672+80.2374C239.536+80.2374+240.313+80.0334+241.003+79.6254C241.693+79.2174+242.233+78.6384+242.623+77.8884C243.013+77.1384+243.208+76.2654+243.208+75.2694C243.208+74.2614+243.013+73.3824+242.623+72.6324C242.233+71.8824+241.693+71.3064+241.003+70.9044C240.313+70.5024+239.536+70.3014+238.672+70.3014Z" fill-rule="evenodd" fill="#ffffff" opacity="1"/>
<path d="M250.318+76.5114L250.318+81.6234L248.68+81.6234L248.68+68.9334L252.712+68.9334C254.164+68.9334+255.25+69.2724+255.97+69.9504C256.69+70.6284+257.05+71.5554+257.05+72.7314C257.05+73.9194+256.678+74.8464+255.934+75.5124C255.19+76.1784+254.116+76.5114+252.712+76.5114L250.318+76.5114ZM252.568+75.1434C253.564+75.1434+254.281+74.9334+254.719+74.5134C255.157+74.0934+255.376+73.4994+255.376+72.7314C255.376+71.9394+255.157+71.3364+254.719+70.9224C254.281+70.5084+253.564+70.3014+252.568+70.3014L250.318+70.3014L250.318+75.1434L252.568+75.1434Z" fill-rule="evenodd" fill="#ffffff" opacity="1"/>
<path d="M262.179+70.2654L262.179+74.6034L267.003+74.6034L267.003+75.8634L262.179+75.8634L262.179+80.2914L267.543+80.2914L267.543+81.6234L260.541+81.6234L260.541+68.9334L267.543+68.9334L267.543+70.2654L262.179+70.2654Z" fill-rule="evenodd" fill="#ffffff" opacity="1"/>
<path d="M277.964+81.6234L274.652+76.4394L272.87+76.4394L272.87+81.6234L271.232+81.6234L271.232+68.9334L275.408+68.9334C276.848+68.9334+277.928+69.2784+278.648+69.9684C279.368+70.6584+279.728+71.5734+279.728+72.7134C279.728+73.7454+279.44+74.5764+278.864+75.2064C278.288+75.8364+277.454+76.2294+276.362+76.3854L279.818+81.6234L277.964+81.6234ZM272.87+75.2514L275.264+75.2514C277.124+75.2514+278.054+74.4354+278.054+72.8034C278.054+71.1714+277.124+70.3554+275.264+70.3554L272.87+70.3554L272.87+75.2514Z" fill-rule="evenodd" fill="#ffffff" opacity="1"/>
<path d="M294.954+68.8074C296.502+68.8074+297.78+69.1884+298.788+69.9504C299.796+70.7124+300.492+71.7534+300.876+73.0734L299.148+73.0734C298.824+72.2334+298.302+71.5644+297.582+71.0664C296.862+70.5684+295.98+70.3194+294.936+70.3194C294.108+70.3194+293.367+70.5204+292.713+70.9224C292.059+71.3244+291.543+71.9004+291.165+72.6504C290.787+73.4004+290.598+74.2794+290.598+75.2874C290.598+76.2834+290.787+77.1534+291.165+77.8974C291.543+78.6414+292.059+79.2144+292.713+79.6164C293.367+80.0184+294.108+80.2194+294.936+80.2194C295.98+80.2194+296.862+79.9704+297.582+79.4724C298.302+78.9744+298.824+78.3054+299.148+77.4654L300.876+77.4654C300.492+78.7854+299.796+79.8264+298.788+80.5884C297.78+81.3504+296.502+81.7314+294.954+81.7314C293.766+81.7314+292.716+81.4584+291.804+80.9124C290.892+80.3664+290.181+79.6044+289.671+78.6264C289.161+77.6484+288.906+76.5354+288.906+75.2874C288.906+74.0274+289.161+72.9054+289.671+71.9214C290.181+70.9374+290.892+70.1724+291.804+69.6264C292.716+69.0804+293.766+68.8074+294.954+68.8074Z" fill-rule="evenodd" fill="#ffffff" opacity="1"/>
<path d="M310.47+68.7714C311.646+68.7714+312.705+69.0474+313.647+69.5994C314.589+70.1514+315.33+70.9224+315.87+71.9124C316.41+72.9024+316.68+74.0214+316.68+75.2694C316.68+76.5174+316.41+77.6364+315.87+78.6264C315.33+79.6164+314.589+80.3874+313.647+80.9394C312.705+81.4914+311.646+81.7674+310.47+81.7674C309.294+81.7674+308.229+81.4914+307.275+80.9394C306.321+80.3874+305.574+79.6164+305.034+78.6264C304.494+77.6364+304.224+76.5174+304.224+75.2694C304.224+74.0214+304.494+72.9024+305.034+71.9124C305.574+70.9224+306.321+70.1514+307.275+69.5994C308.229+69.0474+309.294+68.7714+310.47+68.7714ZM310.47+70.3014C309.594+70.3014+308.811+70.5024+308.121+70.9044C307.431+71.3064+306.891+71.8824+306.501+72.6324C306.111+73.3824+305.916+74.2614+305.916+75.2694C305.916+76.2654+306.111+77.1414+306.501+77.8974C306.891+78.6534+307.431+79.2324+308.121+79.6344C308.811+80.0364+309.594+80.2374+310.47+80.2374C311.334+80.2374+312.111+80.0334+312.801+79.6254C313.491+79.2174+314.031+78.6384+314.421+77.8884C314.811+77.1384+315.006+76.2654+315.006+75.2694C315.006+74.2614+314.811+73.3824+314.421+72.6324C314.031+71.8824+313.491+71.3064+312.801+70.9044C312.111+70.5024+311.334+70.3014+310.47+70.3014Z" fill-rule="evenodd" fill="#ffffff" opacity="1"/>
<path d="M322.025+68.9334L322.025+76.5474C322.025+77.7954+322.301+78.7164+322.853+79.3104C323.405+79.9044+324.167+80.2014+325.139+80.2014C326.099+80.2014+326.849+79.9014+327.389+79.3014C327.929+78.7014+328.199+77.7834+328.199+76.5474L328.199+68.9334L329.837+68.9334L329.837+76.5474C329.837+78.2754+329.408+79.5744+328.55+80.4444C327.692+81.3144+326.543+81.7494+325.103+81.7494C323.675+81.7494+322.532+81.3144+321.674+80.4444C320.816+79.5744+320.387+78.2754+320.387+76.5474L320.387+68.9334L322.025+68.9334Z" fill-rule="evenodd" fill="#ffffff" opacity="1"/>
<path d="M340.69+81.6234L337.378+76.4394L335.596+76.4394L335.596+81.6234L333.958+81.6234L333.958+68.9334L338.134+68.9334C339.574+68.9334+340.654+69.2784+341.374+69.9684C342.094+70.6584+342.454+71.5734+342.454+72.7134C342.454+73.7454+342.166+74.5764+341.59+75.2064C341.014+75.8364+340.18+76.2294+339.088+76.3854L342.544+81.6234L340.69+81.6234ZM335.596+75.2514L337.99+75.2514C339.85+75.2514+340.78+74.4354+340.78+72.8034C340.78+71.1714+339.85+70.3554+337.99+70.3554L335.596+70.3554L335.596+75.2514Z" fill-rule="evenodd" fill="#ffffff" opacity="1"/>
<path d="M354.063+78.3294C354.063+78.9294+353.919+79.4874+353.631+80.0034C353.343+80.5194+352.905+80.9394+352.317+81.2634C351.729+81.5874+351.003+81.7494+350.139+81.7494C349.299+81.7494+348.552+81.5964+347.898+81.2904C347.244+80.9844+346.722+80.5644+346.332+80.0304C345.942+79.4964+345.717+78.8874+345.657+78.2034L347.403+78.2034C347.439+78.5634+347.562+78.9144+347.772+79.2564C347.982+79.5984+348.282+79.8804+348.672+80.1024C349.062+80.3244+349.533+80.4354+350.085+80.4354C350.805+80.4354+351.357+80.2434+351.741+79.8594C352.125+79.4754+352.317+78.9834+352.317+78.3834C352.317+77.8674+352.182+77.4474+351.912+77.1234C351.642+76.7994+351.309+76.5444+350.913+76.3584C350.517+76.1724+349.977+75.9714+349.293+75.7554C348.489+75.4914+347.844+75.2424+347.358+75.0084C346.872+74.7744+346.458+74.4234+346.116+73.9554C345.774+73.4874+345.603+72.8694+345.603+72.1014C345.603+71.4414+345.762+70.8594+346.08+70.3554C346.398+69.8514+346.854+69.4614+347.448+69.1854C348.042+68.9094+348.741+68.7714+349.545+68.7714C350.793+68.7714+351.783+69.0744+352.515+69.6804C353.247+70.2864+353.673+71.0574+353.793+71.9934L352.029+71.9934C351.933+71.4894+351.675+71.0454+351.255+70.6614C350.835+70.2774+350.265+70.0854+349.545+70.0854C348.885+70.0854+348.357+70.2564+347.961+70.5984C347.565+70.9404+347.367+71.4234+347.367+72.0474C347.367+72.5394+347.496+72.9384+347.754+73.2444C348.012+73.5504+348.333+73.7904+348.717+73.9644C349.101+74.1384+349.629+74.3334+350.301+74.5494C351.117+74.8134+351.774+75.0654+352.272+75.3054C352.77+75.5454+353.193+75.9084+353.541+76.3944C353.889+76.8804+354.063+77.5254+354.063+78.3294Z" fill-rule="evenodd" fill="#ffffff" opacity="1"/>
<path d="M359.48+70.2654L359.48+74.6034L364.304+74.6034L364.304+75.8634L359.48+75.8634L359.48+80.2914L364.844+80.2914L364.844+81.6234L357.842+81.6234L357.842+68.9334L364.844+68.9334L364.844+70.2654L359.48+70.2654Z" fill-rule="evenodd" fill="#ffffff" opacity="1"/>
</g>
</g>
</svg>
